<svg version="1.1" id="Layer_1" xmlns="http://www.w3.org/2000/svg" xmlns:xlink="http://www.w3.org/1999/xlink" x="0px" y="0px"
	 width="100%" viewBox="0 0 512 512" enable-background="new 0 0 512 512" xml:space="preserve">
<path fill="#B509FF" opacity="1.000000" stroke="none" 
	d="
M289.000000,513.000000 
	C267.979095,513.000000 246.958206,513.000000 225.729233,512.615051 
	C224.842651,511.828735 224.209915,511.214844 223.478882,511.057404 
	C209.398010,508.025604 195.155807,505.611237 181.253036,501.917206 
	C163.329010,497.154724 146.583557,489.349884 130.422516,480.188812 
	C114.663986,471.256012 99.646751,461.189972 86.597931,448.755463 
	C74.559669,437.283966 63.314037,424.851013 52.749241,411.995087 
	C38.965034,395.221649 28.335123,376.291870 20.173178,356.200500 
	C11.615008,335.133728 4.962687,313.436859 2.902176,290.588074 
	C2.849706,290.006256 1.659564,289.527069 1.000001,289.000000 
	C1.000000,267.645782 1.000000,246.291550 1.390458,224.695312 
	C2.535712,220.350891 3.223019,216.234695 4.056168,212.148254 
	C9.813529,183.909393 18.727161,156.826477 33.021240,131.630829 
	C48.137970,104.985130 67.340424,81.801338 90.579361,61.854359 
	C109.591919,45.535065 130.449234,32.224102 153.406662,22.210976 
	C175.660751,12.504616 198.690979,5.584117 222.911148,2.920311 
	C223.668671,2.836998 224.306412,1.664647 225.000000,1.000000 
	C246.020889,1.000000 267.041779,1.000000 288.269958,1.384496 
	C289.155701,2.170697 289.788422,2.785334 290.519501,2.942602 
	C304.615875,5.975012 318.873230,8.390793 332.791840,12.084952 
	C350.550720,16.798365 367.169861,24.480629 383.189606,33.547634 
	C398.976166,42.482639 414.024353,52.572872 427.124023,64.977554 
	C439.433685,76.634201 450.919495,89.307190 461.656586,102.441414 
	C475.269104,119.093079 485.735901,137.911209 493.825775,157.817810 
	C502.383484,178.875565 509.053741,200.561752 511.097809,223.407852 
	C511.149933,223.990631 512.340393,224.471573 513.000000,225.000000 
	C513.000000,246.020889 513.000000,267.041779 512.614258,288.271667 
	C511.827576,289.159363 511.214478,289.792450 511.057129,290.523590 
	C508.024780,304.612335 505.614288,318.863770 501.914001,332.772675 
	C497.147186,350.690460 489.394379,367.451447 480.192871,383.595367 
	C471.211426,399.353333 461.130981,414.389374 448.693268,427.464325 
	C437.232880,439.511810 424.803680,450.768097 411.929138,461.307556 
	C395.145691,475.046906 376.248260,485.699402 356.151031,493.832642 
	C335.085449,502.357758 313.425262,509.066223 290.584290,511.098419 
	C290.004364,511.150024 289.525818,512.340576 289.000000,513.000000 
M130.500000,376.999725 
	C224.389709,376.999725 318.279419,376.999725 412.227783,376.999725 
	C412.227783,363.783417 412.227783,351.195770 412.227783,338.007935 
	C405.716309,338.007935 399.505463,338.007935 392.873444,338.007935 
	C392.873444,270.691254 392.873444,203.976624 392.873444,137.272797 
	C302.040710,137.272797 211.655350,137.272797 120.838165,137.272797 
	C120.838165,204.270248 120.838165,270.995697 120.838165,338.120483 
	C114.314003,338.120483 108.212349,338.120483 101.788223,338.120483 
	C101.788223,351.252686 101.788223,363.984314 101.788223,376.999725 
	C111.196915,376.999725 120.348457,376.999725 130.500000,376.999725 
z"/>
<path fill="#000000" opacity="1.000000" stroke="none" 
	d="
M1.000001,289.468658 
	C1.659564,289.527069 2.849706,290.006256 2.902176,290.588074 
	C4.962687,313.436859 11.615008,335.133728 20.173178,356.200500 
	C28.335123,376.291870 38.965034,395.221649 52.749241,411.995087 
	C63.314037,424.851013 74.559669,437.283966 86.597931,448.755463 
	C99.646751,461.189972 114.663986,471.256012 130.422516,480.188812 
	C146.583557,489.349884 163.329010,497.154724 181.253036,501.917206 
	C195.155807,505.611237 209.398010,508.025604 223.478882,511.057404 
	C224.209915,511.214844 224.842651,511.828735 225.260574,512.615051 
	C150.406296,513.000000 75.812599,513.000000 1.000000,513.000000 
	C1.000000,438.645905 1.000000,364.291626 1.000001,289.468658 
z"/>
<path fill="#000000" opacity="1.000000" stroke="none" 
	d="
M513.000000,224.531342 
	C512.340393,224.471573 511.149933,223.990631 511.097809,223.407852 
	C509.053741,200.561752 502.383484,178.875565 493.825775,157.817810 
	C485.735901,137.911209 475.269104,119.093079 461.656586,102.441414 
	C450.919495,89.307190 439.433685,76.634201 427.124023,64.977554 
	C414.024353,52.572872 398.976166,42.482639 383.189606,33.547634 
	C367.169861,24.480629 350.550720,16.798365 332.791840,12.084952 
	C318.873230,8.390793 304.615875,5.975012 290.519501,2.942602 
	C289.788422,2.785334 289.155701,2.170697 288.738586,1.384496 
	C363.593719,1.000000 438.187408,1.000000 513.000000,1.000000 
	C513.000000,75.354088 513.000000,149.708389 513.000000,224.531342 
z"/>
<path fill="#000000" opacity="1.000000" stroke="none" 
	d="
M289.468689,513.000000 
	C289.525818,512.340576 290.004364,511.150024 290.584290,511.098419 
	C313.425262,509.066223 335.085449,502.357758 356.151031,493.832642 
	C376.248260,485.699402 395.145691,475.046906 411.929138,461.307556 
	C424.803680,450.768097 437.232880,439.511810 448.693268,427.464325 
	C461.130981,414.389374 471.211426,399.353333 480.192871,383.595367 
	C489.394379,367.451447 497.147186,350.690460 501.914001,332.772675 
	C505.614288,318.863770 508.024780,304.612335 511.057129,290.523590 
	C511.214478,289.792450 511.827576,289.159363 512.614258,288.740295 
	C513.000000,363.593719 513.000000,438.187408 513.000000,513.000000 
	C438.645905,513.000000 364.291626,513.000000 289.468689,513.000000 
z"/>
<path fill="#000000" opacity="1.000000" stroke="none" 
	d="
M224.531342,1.000000 
	C224.306412,1.664647 223.668671,2.836998 222.911148,2.920311 
	C198.690979,5.584117 175.660751,12.504616 153.406662,22.210976 
	C130.449234,32.224102 109.591919,45.535065 90.579361,61.854359 
	C67.340424,81.801338 48.137970,104.985130 33.021240,131.630829 
	C18.727161,156.826477 9.813529,183.909393 4.056168,212.148254 
	C3.223019,216.234695 2.535712,220.350891 1.390458,224.226654 
	C1.000000,149.739456 1.000000,75.478920 1.000000,1.000000 
	C75.354088,1.000000 149.708389,1.000000 224.531342,1.000000 
z"/>
<path fill="#000000" opacity="1.000000" stroke="none" 
	d="
M130.000000,376.999725 
	C120.348457,376.999725 111.196915,376.999725 101.788223,376.999725 
	C101.788223,363.984314 101.788223,351.252686 101.788223,338.120483 
	C108.212349,338.120483 114.314003,338.120483 120.838165,338.120483 
	C120.838165,270.995697 120.838165,204.270248 120.838165,137.272797 
	C211.655350,137.272797 302.040710,137.272797 392.873444,137.272797 
	C392.873444,203.976624 392.873444,270.691254 392.873444,338.007935 
	C399.505463,338.007935 405.716309,338.007935 412.227783,338.007935 
	C412.227783,351.195770 412.227783,363.783417 412.227783,376.999725 
	C318.279419,376.999725 224.389709,376.999725 130.000000,376.999725 
M139.051331,242.500000 
	C139.051331,268.251465 139.051331,294.002960 139.051331,319.700439 
	C217.990753,319.700439 296.354401,319.700439 374.549133,319.700439 
	C374.549133,264.710480 374.549133,210.025421 374.549133,155.406769 
	C295.919830,155.406769 217.690338,155.406769 139.051331,155.406769 
	C139.051331,184.275436 139.051331,212.887711 139.051331,242.500000 
z"/>
<path fill="#FDFDFD" opacity="1.000000" stroke="none" 
	d="
M139.051331,242.000000 
	C139.051331,212.887711 139.051331,184.275436 139.051331,155.406769 
	C217.690338,155.406769 295.919830,155.406769 374.549133,155.406769 
	C374.549133,210.025421 374.549133,264.710480 374.549133,319.700439 
	C296.354401,319.700439 217.990753,319.700439 139.051331,319.700439 
	C139.051331,294.002960 139.051331,268.251465 139.051331,242.000000 
M194.894516,230.394852 
	C204.201584,221.125046 213.508667,211.855240 222.576935,202.823288 
	C218.195877,198.446716 214.014328,194.269470 210.037094,190.296326 
	C194.281311,206.039566 178.388123,221.920120 162.889145,237.406754 
	C178.530670,253.092545 194.492340,269.099396 209.978653,284.629547 
	C213.860931,280.669006 217.972809,276.474243 222.764145,271.586334 
	C211.521118,260.369202 199.898727,248.773575 188.030182,236.932358 
	C190.046417,235.019669 192.220413,232.957306 194.894516,230.394852 
M311.512970,196.983185 
	C309.104767,194.489609 306.696564,191.996017 304.395050,189.612930 
	C299.787811,194.209427 295.599213,198.388229 290.887634,203.088821 
	C302.487274,214.658600 314.128174,226.269547 326.235870,238.346100 
	C314.750519,249.799454 303.110565,261.406982 291.684082,272.801605 
	C295.861755,276.964050 299.943115,281.030518 303.810150,284.883484 
	C319.503296,269.111542 335.449097,253.085663 351.554657,236.899261 
	C338.674561,224.059769 325.344177,210.771362 311.512970,196.983185 
M246.858566,242.210876 
	C243.525986,258.801758 240.193405,275.392639 236.795380,292.309357 
	C242.969254,293.525909 248.732986,294.661652 254.711151,295.839630 
	C262.242218,257.967102 269.682770,220.549759 277.171783,182.888809 
	C270.983246,181.689102 265.320343,180.591293 259.286163,179.421509 
	C255.124771,200.356125 251.048706,220.861435 246.858566,242.210876 
z"/>
<path fill="#030303" opacity="1.000000" stroke="none" 
	d="
M194.644470,230.644897 
	C192.220413,232.957306 190.046417,235.019669 188.030182,236.932358 
	C199.898727,248.773575 211.521118,260.369202 222.764145,271.586334 
	C217.972809,276.474243 213.860931,280.669006 209.978653,284.629547 
	C194.492340,269.099396 178.530670,253.092545 162.889145,237.406754 
	C178.388123,221.920120 194.281311,206.039566 210.037094,190.296326 
	C214.014328,194.269470 218.195877,198.446716 222.576935,202.823288 
	C213.508667,211.855240 204.201584,221.125046 194.644470,230.644897 
z"/>
<path fill="#030303" opacity="1.000000" stroke="none" 
	d="
M311.763367,197.233063 
	C325.344177,210.771362 338.674561,224.059769 351.554657,236.899261 
	C335.449097,253.085663 319.503296,269.111542 303.810150,284.883484 
	C299.943115,281.030518 295.861755,276.964050 291.684082,272.801605 
	C303.110565,261.406982 314.750519,249.799454 326.235870,238.346100 
	C314.128174,226.269547 302.487274,214.658600 290.887634,203.088821 
	C295.599213,198.388229 299.787811,194.209427 304.395050,189.612930 
	C306.696564,191.996017 309.104767,194.489609 311.763367,197.233063 
z"/>
<path fill="#040404" opacity="1.000000" stroke="none" 
	d="
M246.915604,241.788818 
	C251.048706,220.861435 255.124771,200.356125 259.286163,179.421509 
	C265.320343,180.591293 270.983246,181.689102 277.171783,182.888809 
	C269.682770,220.549759 262.242218,257.967102 254.711151,295.839630 
	C248.732986,294.661652 242.969254,293.525909 236.795380,292.309357 
	C240.193405,275.392639 243.525986,258.801758 246.915604,241.788818 
z"/>
</svg>