<?xml version="1.0" standalone="no"?>
<!DOCTYPE svg PUBLIC "-//W3C//DTD SVG 20010904//EN"
 "http://www.w3.org/TR/2001/REC-SVG-20010904/DTD/svg10.dtd">
<svg version="1.0" xmlns="http://www.w3.org/2000/svg"
 width="512.000000pt" height="512.000000pt" viewBox="0 0 512.000000 512.000000"
 preserveAspectRatio="xMidYMid meet">

<g transform="translate(0.000000,512.000000) scale(0.100000,-0.100000)"
fill="#000000" stroke="none">
<path d="M3241 4989 c-231 -26 -414 -83 -487 -153 l-44 -43 0 -161 0 -162
-1164 0 c-799 0 -1174 -3 -1193 -11 -40 -15 -82 -57 -104 -104 -18 -38 -19
-101 -19 -1545 0 -1442 1 -1507 19 -1545 22 -48 54 -79 103 -100 33 -13 271
-15 2208 -15 1937 0 2175 2 2208 15 47 20 79 50 103 97 18 36 19 83 19 1556
l0 1518 -29 46 c-50 79 -62 82 -336 88 l-240 5 -1 158 c-2 125 -5 162 -18 182
-38 57 -199 122 -392 156 -137 24 -490 34 -633 18z m-257 -540 c36 -28 36 -80
0 -108 -15 -12 -34 -21 -44 -21 -34 0 -70 39 -70 75 0 36 36 75 70 75 10 0 29
-9 44 -21z m264 -69 c48 -45 16 -123 -50 -123 -64 0 -92 83 -42 122 34 27 64
27 92 1z m-548 -524 c0 -433 0 -433 23 -466 69 -103 347 -177 698 -187 353
-10 646 41 793 138 79 53 76 33 76 519 l0 430 115 0 115 0 0 -1166 0 -1166
-29 -29 -29 -29 -2031 0 -2031 0 0 1159 0 1158 21 27 c12 15 31 32 43 36 11 5
519 9 1129 9 l1107 1 0 -434z m284 153 c53 -42 23 -122 -46 -122 -64 0 -92 83
-42 122 15 12 34 21 44 21 10 0 29 -9 44 -21z m266 -69 c24 -24 26 -77 3 -102
-38 -42 -123 -9 -123 49 0 61 78 95 120 53z m-262 -370 c26 -25 29 -76 5 -102
-24 -27 -87 -24 -107 4 -22 31 -20 68 6 95 27 28 67 30 96 3z m262 -70 c24
-24 26 -77 3 -102 -38 -42 -123 -9 -123 49 0 61 78 95 120 53z m-445 -2025
c32 -31 33 -80 3 -112 -21 -23 -24 -23 -247 -23 -217 0 -226 1 -248 22 -32 30
-31 81 2 113 l24 25 221 0 221 0 24 -25z"/>
<path d="M1590 494 c-55 -24 -79 -52 -131 -156 -56 -111 -60 -144 -23 -187
l26 -31 1098 0 1098 0 26 31 c38 44 34 84 -18 187 -48 94 -92 143 -145 161
-24 8 -297 11 -965 11 -809 -1 -936 -3 -966 -16z"/>
</g>
</svg>
